
<svg version="1.1" id="Слой_1"
	 xmlns="http://www.w3.org/2000/svg" xmlns:xlink="http://www.w3.org/1999/xlink" x="0px" y="0px" viewBox="0 0 24 24"
	 style="enable-background:new 0 0 24 24;" xml:space="preserve">

<g fill="#333">
	<path d="M7.4,19.1c-0.8,0-1.5,0.7-1.5,1.5s0.7,1.5,1.5,1.5s1.5-0.7,1.5-1.5S8.3,19.1,7.4,19.1z"/>
	<path d="M18.7,19.1c-0.8,0-1.5,0.7-1.5,1.5s0.7,1.5,1.5,1.5c0.8,0,1.5-0.7,1.5-1.5S19.5,19.1,18.7,19.1z"/>
	<path d="M21.5,7.1c-0.4-0.5-1-0.7-1.6-0.7H5.8L5.6,3.5c0-0.3-0.3-0.6-0.6-0.7L2.9,2.5C2.5,2.4,2.1,2.7,2,3.1
		C1.9,3.5,2.2,3.9,2.6,4l1.5,0.3L5,15.1c0.1,1.3,1.2,2.3,2.5,2.3h10.9c1.3,0,2.3-0.9,2.5-2.2L22,8.7C22.1,8.1,21.9,7.5,21.5,7.1z
		 M19.5,15.1c-0.1,0.5-0.5,0.9-1,0.9H7.6c-0.6,0-1-0.4-1-1L5.9,7.8h14c0.2,0,0.4,0.1,0.4,0.2s0.2,0.2,0.1,0.5L19.5,15.1z"/>
	<path d="M16.9,10h-2.8c-0.4,0-0.8,0.3-0.8,0.8s0.3,0.8,0.8,0.8h2.8c0.4,0,0.8-0.3,0.8-0.8S17.3,10,16.9,10z"/>
</g>
</svg>
