<svg version="1.1" id="Слой_1" xmlns="http://www.w3.org/2000/svg" xmlns:xlink="http://www.w3.org/1999/xlink" x="0px" y="0px"
	 width="24px" height="24px" viewBox="0 0 24 24" enable-background="new 0 0 24 24" xml:space="preserve">
<g>
	<path fill="#333" d="M9,3.2h6c0.4,0,0.8-0.3,0.8-0.8S15.4,1.7,15,1.7H9c-0.4,0-0.8,0.3-0.8,0.8S8.6,3.2,9,3.2z"/>
	<path fill="#333" d="M19,4.2h-1H6H5C4.6,4.2,4.2,4.6,4.2,5S4.6,5.7,5,5.7h0.2V19c0,1.5,1.2,2.8,2.8,2.8h8c1.5,0,2.8-1.2,2.8-2.8
		V5.7H19c0.4,0,0.8-0.3,0.8-0.8S19.4,4.2,19,4.2z M17.2,19c0,0.7-0.6,1.2-1.2,1.2H8c-0.7,0-1.2-0.6-1.2-1.2V5.7h10.5V19z"/>
	<path fill="#333" d="M12,17.8c0.4,0,0.8-0.3,0.8-0.8V9c0-0.4-0.3-0.8-0.8-0.8S11.2,8.6,11.2,9v8C11.2,17.4,11.6,17.8,12,17.8z"
		/>
	<path fill="#333" d="M15,17.8c0.4,0,0.8-0.3,0.8-0.8V9c0-0.4-0.3-0.8-0.8-0.8S14.2,8.6,14.2,9v8C14.2,17.4,14.6,17.8,15,17.8z"
		/>
	<path fill="#333" d="M9,17.8c0.4,0,0.8-0.3,0.8-0.8V9c0-0.4-0.3-0.8-0.8-0.8S8.2,8.6,8.2,9v8C8.2,17.4,8.6,17.8,9,17.8z"/>
</g>
</svg>
